<?xml version="1.0" encoding="utf-8"?>
<!-- Generator: Adobe Illustrator 26.3.1, SVG Export Plug-In . SVG Version: 6.00 Build 0)  -->
<svg version="1.1" id="Layer_1" xmlns="http://www.w3.org/2000/svg" xmlns:xlink="http://www.w3.org/1999/xlink" x="0px" y="0px"
	 viewBox="0 0 20 20" style="enable-background:new 0 0 20 20;" xml:space="preserve" fill="none">
<polyline points="18.7,8.7 18.7,4.1 14.1,4.1" stroke-width="1.5" stroke="#80BDC4" fill="none" stroke-linecap="round" stroke-linejoin="round"/>
<line x1="18.7" y1="4.1" x2="12.4" y2="10.4"  stroke-width="1.5" stroke="#80BDC4" fill="none" stroke-linecap="round" stroke-linejoin="round"/>
<path d="M7.9,12.3 c-2.5,0-4.7,1.2-6.1,3.1c-0.3,0.4-0.5,0.6-0.5,0.9c0,0.2,0.1,0.5,0.3,0.6C1.8,17,2.1,17,2.7,17h10.4c0.6,0,0.9,0,1.1-0.2 c0.2-0.1,0.3-0.4,0.3-0.6c0-0.3-0.1-0.5-0.5-0.9C12.6,13.5,10.4,12.3,7.9,12.3z"  stroke-width="1.5" stroke="#80BDC4" fill="none" stroke-linecap="round" stroke-linejoin="round"/>
<path d="M7.9,9.2 c1.7,0,3.1-1.4,3.1-3.1S9.6,3,7.9,3C6.2,3,4.8,4.4,4.8,6.1S6.2,9.2,7.9,9.2z"  stroke-width="1.5" stroke="#80BDC4" fill="none" stroke-linecap="round" stroke-linejoin="round"/>
</svg>
