<?xml version="1.0" encoding="utf-8"?>
<!-- Generator: Adobe Illustrator 26.3.1, SVG Export Plug-In . SVG Version: 6.00 Build 0)  -->
<svg version="1.1" id="Layer_1" xmlns="http://www.w3.org/2000/svg" xmlns:xlink="http://www.w3.org/1999/xlink" x="0px" y="0px"
	 viewBox="0 0 24 24" style="enable-background:new 0 0 24 24;" xml:space="preserve">
<path style="fill:#80BDC4;stroke:none;" d="M6,12h12c0.7,0,1.2-0.5,1.2-1.2v0c0-0.7-0.5-1.2-1.2-1.2H6c-0.7,0-1.2,0.5-1.2,1.2v0C4.8,11.5,5.3,12,6,12z"/>
<path style="fill:#80BDC4;stroke:none;" d="M6,16.8h7.2c0.7,0,1.2-0.5,1.2-1.2v0c0-0.7-0.5-1.2-1.2-1.2H6c-0.7,0-1.2,0.5-1.2,1.2v0C4.8,16.3,5.3,16.8,6,16.8z"/>
<path style="fill:#80BDC4;stroke:none;" d="M23.4,5.6c-0.5-0.5-1.2-0.8-1.9-0.8H12L10.2,3C9.8,2.6,9.3,2.4,8.8,2.4H2.4C1.8,2.4,1.2,2.6,0.8,3C0.3,3.5,0,4.2,0,4.9v14.1
	c0,0.7,0.3,1.4,0.8,1.9c0.5,0.4,1,0.6,1.6,0.6h19.2c0.6,0,1.2-0.2,1.6-0.6c0.5-0.5,0.8-1.2,0.8-1.9V7.2C24,6.6,23.8,6,23.4,5.6z
	 M21.6,19.2H2.4V4.8h6.2l1.8,1.8c0.4,0.4,0.9,0.6,1.4,0.6h9.8V19.2z"/>
</svg>
