<?xml version="1.0" encoding="utf-8"?>
<!-- Generator: Adobe Illustrator 26.3.1, SVG Export Plug-In . SVG Version: 6.00 Build 0)  -->
<svg version="1.1" id="Layer_2_00000006706707020762796170000009824209984386121896_"
	 xmlns="http://www.w3.org/2000/svg" xmlns:xlink="http://www.w3.org/1999/xlink" x="0px" y="0px" viewBox="0 0 22 22"
	 style="enable-background:new 0 0 22 22;" xml:space="preserve">
<path style="fill:none;stroke:#7EC99E;stroke-width:2;stroke-linecap:round;stroke-linejoin:round;stroke-miterlimit:10;" d="M21,7
	v11c0,1.7-1.3,3-3,3H4c-1.7,0-3-1.3-3-3V4c0-1.7,1.3-3,3-3h11L21,7z"/>
<polyline style="fill:none;stroke:#7EC99E;stroke-width:2;stroke-linecap:round;stroke-linejoin:round;stroke-miterlimit:10;" points="
	21,7 15,7 15,1 "/>
<path style="fill:none;stroke:#7EC99E;stroke-width:2;stroke-linecap:round;stroke-linejoin:round;" d="M13.9,11.5l0.9,0.9
	c1.2,1.2,1.2,3.1,0,4.3c-1.2,1.2-3.1,1.2-4.3,0l-0.9-0.9 M10.5,8.1L9.6,7.2C8.4,6,6.5,6,5.3,7.2s-1.2,3.1,0,4.3l0.9,0.9 M12.2,14.1
	L7.9,9.8"/>
</svg>
