<?xml version="1.0" encoding="utf-8"?>
<!-- Generator: Adobe Illustrator 26.3.1, SVG Export Plug-In . SVG Version: 6.00 Build 0)  -->
<svg version="1.1" id="Layer_1" xmlns="http://www.w3.org/2000/svg" xmlns:xlink="http://www.w3.org/1999/xlink" x="0px" y="0px"
	 viewBox="0 0 22 22" style="enable-background:new 0 0 22 22;" xml:space="preserve">
<polygon style="fill:none;stroke:#7EC99E;stroke-width:2;stroke-linecap:round;stroke-linejoin:round;" points="15,7 15,4 18,1 
	19,3 21,4 18,7 "/>
<line style="fill:none;stroke:#7EC99E;stroke-width:2;stroke-linecap:round;stroke-linejoin:round;" x1="15" y1="7" x2="11" y2="11"/>
<path style="fill:none;stroke:#7EC99E;stroke-width:2;stroke-linecap:round;stroke-linejoin:round;" d="M16,11c0,2.8-2.2,5-5,5
	c-2.8,0-5-2.2-5-5c0-2.8,2.2-5,5-5"/>
<path style="fill:none;stroke:#7EC99E;stroke-width:2;stroke-linecap:round;stroke-linejoin:round;" d="M21,11v8c0,1.1-0.9,2-2,2H3
	c-1.1,0-2-0.9-2-2V3c0-1.1,0.9-2,2-2h8"/>
</svg>
