<?xml version="1.0" encoding="utf-8"?>
<!-- Generator: Adobe Illustrator 26.3.1, SVG Export Plug-In . SVG Version: 6.00 Build 0)  -->
<svg version="1.1" id="Layer_1" xmlns="http://www.w3.org/2000/svg" xmlns:xlink="http://www.w3.org/1999/xlink" x="0px" y="0px"
	 viewBox="0 0 22 22" style="enable-background:new 0 0 22 22;" xml:space="preserve">
<path style="fill:none;stroke:#7EC99E;stroke-width:2;stroke-linecap:round;stroke-linejoin:round;" d="M4.4,8.1h8.8 M13.2,8.1
	c0,1.2,1,2.2,2.2,2.2s2.2-1,2.2-2.2c0-1.2-1-2.2-2.2-2.2S13.2,6.8,13.2,8.1z M8.8,13.9h8.8 M8.8,13.9c0,1.2-1,2.2-2.2,2.2
	s-2.2-1-2.2-2.2s1-2.2,2.2-2.2S8.8,12.7,8.8,13.9z"/>
<path style="fill:none;stroke:#7EC99E;stroke-width:2;stroke-miterlimit:10;" d="M19,21H3c-1.1,0-2-0.9-2-2V3c0-1.1,0.9-2,2-2h16
	c1.1,0,2,0.9,2,2v16C21,20.1,20.1,21,19,21z"/>
</svg>
