<?xml version="1.0" encoding="UTF-8"?><svg id="Layer_1" xmlns="http://www.w3.org/2000/svg" viewBox="0 0 64 64"><path d="M16.3,28.1v12.8c0,.4-.4,.7-.8,.5l-11.1-6.4c-.6-.3-1.3,.1-1.3,.7v11.5c0,1.4,.7,2.7,2,3.4l23.1,13.3c.6,.3,1.3-.1,1.3-.7v-26.7c0-1.4-.7-2.7-2-3.4l-10-5.8c-.5-.3-1.2,.1-1.2,.8Z" style="fill:#33c8b4;"/><path d="M34.3,36.5v26.7c0,.6,.7,1.1,1.3,.7l10-5.8c1.2-.7,2-2,2-3.4v-12c0-.5,.3-1,.7-1.3l10.5-6c1.2-.7,2-2,2-3.4v-11.5c0-.7-.7-1-1.3-.7l-23.2,13.3c-1.2,.7-2,2-2,3.4Z" style="fill:#33c8b4;"/><path d="M57.1,14.2L33.1,.3c-.7-.4-1.6-.4-2.3,0L6.8,14.2c-.5,.3-.5,1,0,1.3l11.2,6.5c.5,.3,1.1,.3,1.5,0l11.8-6.8c.4-.2,.8-.2,1.2,0l11.8,6.8c.5,.3,1.1,.3,1.5,0l11.3-6.5c.5-.3,.5-1,0-1.3Z" style="fill:#ff8f00;"/></svg>