<?xml version="1.0" encoding="utf-8"?>
<!-- Generator: Adobe Illustrator 26.3.1, SVG Export Plug-In . SVG Version: 6.00 Build 0)  -->
<svg version="1.1" id="Layer_1" xmlns="http://www.w3.org/2000/svg" xmlns:xlink="http://www.w3.org/1999/xlink" x="0px" y="0px"
	 viewBox="0 0 48 48" style="enable-background:new 0 0 48 48;" xml:space="preserve">
<style type="text/css">
	.st0{fill:#4C7EA0;}
</style>
<path class="st0" d="M35.9,36.3c1,0,1.9-0.4,2.6-1.1c0.7-0.7,1.1-1.6,1.1-2.6s-0.4-1.9-1.1-2.6c-0.7-0.7-1.6-1.1-2.6-1.1
	c-1,0-1.9,0.3-2.6,1c-0.7,0.7-1.1,1.6-1.1,2.6c0,1,0.4,1.9,1.1,2.6C34,35.9,34.9,36.3,35.9,36.3z M35.8,43.6c1.3,0,2.5-0.3,3.6-0.8
	c1.1-0.6,1.9-1.3,2.7-2.3c-1-0.6-2-1-3-1.3c-1-0.3-2.1-0.4-3.1-0.4c-1.1,0-2.2,0.1-3.2,0.4c-1,0.3-2,0.7-2.9,1.3
	c0.7,1,1.5,1.8,2.6,2.3C33.3,43.3,34.5,43.6,35.8,43.6z M23.6,45.5c-4.8-1.4-8.8-4.3-12-8.7s-4.8-9.4-4.8-15.1V8.8l16.8-6.2
	l16.8,6.2v14.8c-0.3-0.1-1.6-0.5-1.9-0.6v-13L23.6,4.6L8.7,10.1v11.6c0,2.9,0.5,5.6,1.4,8.1s2.1,4.7,3.6,6.6s3.2,3.6,5.1,4.9
	c1.9,1.3,3.8,2.2,5.8,2.7c0,0,0.9,0.8,1,0.9C25.2,45,23.9,45.4,23.6,45.5z M36,45.6c-2.6,0-4.7-0.9-6.5-2.7c-1.8-1.8-2.7-4-2.7-6.5
	c0-2.6,0.9-4.8,2.7-6.6c1.8-1.8,4-2.7,6.5-2.7c2.6,0,4.7,0.9,6.5,2.7c1.8,1.8,2.7,4,2.7,6.6c0,2.6-0.9,4.7-2.7,6.5
	S38.5,45.6,36,45.6z"/>
</svg>
