<?xml version="1.0" encoding="utf-8"?>
<!-- Generator: Adobe Illustrator 26.3.1, SVG Export Plug-In . SVG Version: 6.00 Build 0)  -->
<svg version="1.1" id="Layer_1" xmlns="http://www.w3.org/2000/svg" xmlns:xlink="http://www.w3.org/1999/xlink" x="0px" y="0px"
	 viewBox="0 0 48 48" style="enable-background:new 0 0 48 48;" xml:space="preserve">
<style type="text/css">
	.st0{fill:#4C7EA0;}
</style>
<path class="st0" d="M38.1,40.8l-1.2-1.2l5-5.1H30.4v-1.8h11.5l-5-5l1.2-1.3l7.2,7.2L38.1,40.8z M5.4,34.5c-0.8,0-1.6-0.3-2.2-0.9
	s-0.9-1.4-0.9-2.2V7.9c0-0.8,0.3-1.6,0.9-2.2c0.6-0.6,1.4-0.9,2.2-0.9h30.3c0.8,0,1.6,0.3,2.2,0.9c0.6,0.6,0.9,1.4,0.9,2.2V21
	c-0.1,0-0.3,0.1-0.4,0.1h-1.3V7.9L20.4,20.2L4.1,7.9v23.4c0,0.4,0.1,0.7,0.4,1c0.3,0.3,0.6,0.4,1,0.4h20c0,0.2,0.1,0.3,0.1,0.4v1.4
	H5.4z M4.9,6.5L20.4,18L36.3,6.5H4.9z M4.1,32.7V6.5V32.7z"/>
</svg>
