<?xml version="1.0" encoding="utf-8"?>
<!-- Generator: Adobe Illustrator 26.3.1, SVG Export Plug-In . SVG Version: 6.00 Build 0)  -->
<svg version="1.1" id="Layer_1" xmlns="http://www.w3.org/2000/svg" xmlns:xlink="http://www.w3.org/1999/xlink" x="0px" y="0px"
	 viewBox="0 0 48 48" style="enable-background:new 0 0 48 48;" xml:space="preserve">
<style type="text/css">
	.st0{fill:#4C7EA0;}
</style>
<path class="st0" d="M6.2,45.5c-1,0-1.9-0.4-2.6-1.1c-0.7-0.7-1.1-1.6-1.1-2.6V6.2c0-1,0.4-1.9,1.1-2.6s1.6-1.1,2.6-1.1h27.5
	l11.8,11.8v27.5c0,1-0.4,1.9-1.1,2.6c-0.7,0.7-1.6,1.1-2.6,1.1C41.8,45.5,6.2,45.5,6.2,45.5z M6.2,43.4h35.6c0.4,0,0.8-0.2,1.1-0.5
	s0.5-0.7,0.5-1.1V15.7H32.3V4.6H6.2c-0.4,0-0.8,0.2-1.1,0.5S4.6,5.7,4.6,6.2v35.6c0,0.4,0.2,0.8,0.5,1.1S5.7,43.4,6.2,43.4z
	 M11.9,34.4h24.2v-2.1H11.9V34.4z M11.9,15.7H24v-2.1H11.9V15.7z M11.9,25h24.2v-2H11.9V25z M4.6,4.6v11.1V4.6v38.8V4.6z"/>
</svg>
