<?xml version="1.0" encoding="utf-8"?>
<!-- Generator: Adobe Illustrator 26.3.1, SVG Export Plug-In . SVG Version: 6.00 Build 0)  -->
<svg version="1.1" id="Layer_1" xmlns="http://www.w3.org/2000/svg" xmlns:xlink="http://www.w3.org/1999/xlink" x="0px" y="0px"
	 viewBox="0 0 48 48" style="enable-background:new 0 0 48 48;" xml:space="preserve">
<style type="text/css">
	.st0{fill:#4C7EA0;}
</style>
<path class="st0" d="M33.7,2.5H6.2c-1,0-1.9,0.4-2.6,1.1S2.5,5.2,2.5,6.2v35.6c0,1,0.4,1.9,1.1,2.6c0.7,0.7,1.6,1.1,2.6,1.1h35.6
	c1,0,1.9-0.4,2.6-1.1c0.7-0.7,1.1-1.6,1.1-2.6V14.3L33.7,2.5z M43.4,41.8c0,0.4-0.2,0.8-0.5,1.1s-0.7,0.5-1.1,0.5H6.2
	c-0.5,0-0.8-0.2-1.1-0.5c-0.3-0.3-0.5-0.7-0.5-1.1V6.2c0-0.5,0.2-0.8,0.5-1.1c0.3-0.3,0.7-0.5,1.1-0.5h26.1v11.1h11.1V41.8z"/>
<polygon class="st0" points="20.9,36.3 34.9,22.4 33.5,21 20.9,33.6 14.3,26.9 12.9,28.3 "/>
</svg>
