<?xml version="1.0" encoding="utf-8"?>
<!-- Generator: Adobe Illustrator 26.3.1, SVG Export Plug-In . SVG Version: 6.00 Build 0)  -->
<svg version="1.1" id="Layer_1" xmlns="http://www.w3.org/2000/svg" xmlns:xlink="http://www.w3.org/1999/xlink" x="0px" y="0px"
	 viewBox="0 0 48 48" style="enable-background:new 0 0 48 48;" xml:space="preserve">
<style type="text/css">
	.st0{fill:#4C7EA0;}
</style>
<path class="st0" d="M10.6,45.5c-0.9,0-1.6-0.3-2.3-1c-0.7-0.7-1-1.4-1-2.3V20.3c0-0.9,0.3-1.7,1-2.3c0.7-0.6,1.4-1,2.3-1h4.2v-5.3
	c0-2.6,0.9-4.8,2.7-6.6s4-2.7,6.6-2.7s4.8,0.9,6.6,2.7s2.7,4,2.7,6.6V17h4.2c0.9,0,1.6,0.3,2.3,1c0.7,0.6,1,1.4,1,2.3v21.9
	c0,0.9-0.3,1.6-1,2.3c-0.7,0.7-1.4,1-2.3,1H10.6z M10.6,43.6h26.9c0.4,0,0.7-0.1,1-0.4c0.3-0.3,0.4-0.6,0.4-1V20.3
	c0-0.4-0.1-0.7-0.4-1c-0.3-0.3-0.6-0.4-1-0.4H10.6c-0.4,0-0.7,0.1-1,0.4c-0.3,0.3-0.4,0.6-0.4,1v21.9c0,0.4,0.1,0.7,0.4,1
	C9.8,43.5,10.2,43.6,10.6,43.6z M24,34.8c1,0,1.8-0.3,2.5-1c0.7-0.7,1-1.5,1-2.4c0-0.9-0.3-1.7-1-2.4c-0.7-0.7-1.5-1.1-2.5-1.1
	s-1.8,0.4-2.5,1.1c-0.7,0.7-1,1.5-1,2.4c0,1,0.3,1.8,1,2.4C22.2,34.4,23,34.8,24,34.8z M16.5,17h14.9v-5.3c0-2.1-0.7-3.8-2.2-5.3
	c-1.5-1.4-3.2-2.1-5.3-2.2c-2.1,0-3.8,0.7-5.3,2.2c-1.5,1.4-2.2,3.2-2.2,5.3V17z M9.1,43.6V18.9C9.1,18.9,9.1,43.6,9.1,43.6z"/>
</svg>
