<?xml version="1.0" encoding="utf-8"?>
<!-- Generator: Adobe Illustrator 26.3.1, SVG Export Plug-In . SVG Version: 6.00 Build 0)  -->
<svg version="1.1" id="Layer_1" xmlns="http://www.w3.org/2000/svg" xmlns:xlink="http://www.w3.org/1999/xlink" x="0px" y="0px"
	 viewBox="0 0 48 48" style="enable-background:new 0 0 48 48;" xml:space="preserve">
<style type="text/css">
	.st0{fill:#4C7EA0;}
</style>
<path class="st0" d="M14.1,22.1c0.5,0,0.9-0.2,1.3-0.5c0.4-0.4,0.5-0.8,0.5-1.3s-0.2-1-0.5-1.3s-0.8-0.5-1.3-0.5s-1,0.2-1.3,0.5
	c-0.4,0.4-0.5,0.8-0.5,1.3s0.2,0.9,0.5,1.3C13.1,21.9,13.6,22.1,14.1,22.1z M24.1,22.1c0.5,0,1-0.2,1.3-0.5c0.4-0.4,0.5-0.8,0.5-1.3
	s-0.2-1-0.5-1.3c-0.4-0.4-0.8-0.5-1.3-0.5s-0.9,0.2-1.3,0.5c-0.4,0.4-0.5,0.8-0.5,1.3s0.2,0.9,0.5,1.3
	C23.2,21.9,23.6,22.1,24.1,22.1z M33.9,22.1c0.5,0,0.9-0.2,1.3-0.5c0.4-0.4,0.6-0.8,0.6-1.3s-0.2-1-0.6-1.3
	c-0.4-0.4-0.8-0.5-1.3-0.5S33,18.7,32.6,19c-0.4,0.4-0.6,0.8-0.6,1.3s0.2,0.9,0.6,1.3C33,21.9,33.4,22.1,33.9,22.1z M2.5,44.4V6.9
	c0-0.9,0.3-1.7,1-2.3s1.4-1,2.3-1h36.4c0.9,0,1.7,0.3,2.3,1c0.6,0.6,1,1.4,1,2.3v26.9c0,0.9-0.3,1.7-1,2.3s-1.4,1-2.3,1H9.8
	L2.5,44.4z M4.4,39.9l4.7-4.7h33.1c0.4,0,0.7-0.1,1-0.4c0.3-0.3,0.4-0.6,0.4-1V6.9c0-0.4-0.1-0.7-0.4-1c-0.3-0.3-0.6-0.4-1-0.4H5.8
	c-0.4,0-0.7,0.1-1,0.4s-0.4,0.6-0.4,1V39.9z M4.4,6.9V5.5V40V6.9z"/>
</svg>
