<?xml version="1.0" encoding="utf-8"?>
<!-- Generator: Adobe Illustrator 26.3.1, SVG Export Plug-In . SVG Version: 6.00 Build 0)  -->
<svg version="1.1" id="Layer_1" xmlns="http://www.w3.org/2000/svg" xmlns:xlink="http://www.w3.org/1999/xlink" x="0px" y="0px"
	 viewBox="0 0 48 48" style="enable-background:new 0 0 48 48;" xml:space="preserve">
<style type="text/css">
	.st0{fill:#4C7EA0;}
</style>
<path class="st0" d="M21.2,21.3c-1.9,0-3.5-0.7-4.9-2s-2-3-2-4.9c0-1.9,0.7-3.6,2-4.9c1.4-1.4,3-2,4.9-2s3.5,0.7,4.9,2
	c1.4,1.4,2,3,2,4.9c0,1.9-0.7,3.5-2,4.9C24.7,20.6,23.1,21.3,21.2,21.3z M21.2,19.4c1.4,0,2.6-0.5,3.6-1.5c1-1,1.5-2.2,1.5-3.6
	c0-1.4-0.5-2.6-1.5-3.6c-1-1-2.2-1.5-3.6-1.5c-1.4,0-2.7,0.5-3.7,1.5c-1,1-1.5,2.2-1.5,3.6c0,1.4,0.5,2.6,1.5,3.6
	C18.6,18.9,19.8,19.4,21.2,19.4z M46.1,47.2l-6.7-6.7c-0.8,0.6-1.6,1-2.5,1.3c-0.9,0.2-1.7,0.4-2.4,0.4c-2.2,0-4.1-0.8-5.7-2.3
	s-2.3-3.4-2.3-5.6c0-2.2,0.8-4.1,2.3-5.6s3.4-2.3,5.6-2.3c2.2,0,4.1,0.8,5.6,2.3c1.5,1.5,2.3,3.4,2.3,5.6c0,0.8-0.1,1.6-0.3,2.5
	c-0.2,0.9-0.6,1.7-1.3,2.5l6.7,6.7L46.1,47.2z M34.4,40.3c1.7,0,3.2-0.6,4.3-1.8c1.2-1.2,1.8-2.6,1.8-4.3c0-1.7-0.6-3.2-1.8-4.3
	S36.1,28,34.4,28c-1.7,0-3.2,0.6-4.3,1.8c-1.2,1.2-1.8,2.6-1.8,4.3c0,1.7,0.6,3.2,1.8,4.3C31.2,39.7,32.7,40.3,34.4,40.3z M4.4,39.2
	v-3.5c0-1.1,0.3-2,0.9-2.8c0.6-0.8,1.4-1.4,2.4-2c1.7-0.8,4-1.6,6.9-2.4s6-1,9.3-0.7c-0.2,0.3-0.4,0.6-0.5,0.9
	c-0.1,0.3-0.3,0.6-0.4,0.9c-3.2-0.2-6.1,0-8.8,0.8c-2.6,0.8-4.6,1.5-5.8,2.1c-0.7,0.4-1.2,0.8-1.6,1.3s-0.6,1.1-0.6,1.8v1.6h16.3
	c0.2,0.3,0.4,0.6,0.5,0.9c0.1,0.3,0.3,0.6,0.4,0.9H4.4z"/>
</svg>
