<?xml version="1.0" encoding="utf-8"?>
<!-- Generator: Adobe Illustrator 26.3.1, SVG Export Plug-In . SVG Version: 6.00 Build 0)  -->
<svg version="1.1" id="Layer_1" xmlns="http://www.w3.org/2000/svg" xmlns:xlink="http://www.w3.org/1999/xlink" x="0px" y="0px"
	 viewBox="0 0 48 48" style="enable-background:new 0 0 48 48;" xml:space="preserve">
<style type="text/css">
	.st0{fill:#4C7EA0;}
</style>
<path class="st0" d="M6.6,39.5v-1.8h4.8V19.6c0-3.1,1-5.8,2.9-8.2s4.5-3.8,7.6-4.4V5.3c0-0.6,0.2-1.1,0.6-1.5s0.9-0.6,1.6-0.6
	s1.2,0.2,1.6,0.6s0.6,0.9,0.6,1.5V7c3.1,0.5,5.6,2,7.6,4.4s2.9,5.1,2.9,8.2v18.1h4.7v1.8C41.5,39.5,6.6,39.5,6.6,39.5z M24,46.2
	c-1,0-1.9-0.4-2.6-1.1c-0.8-0.7-1.1-1.6-1.1-2.7h7.6c0,1.1-0.4,2-1.1,2.7C26,45.9,25.1,46.2,24,46.2z M13.1,37.7h21.8V19.6
	c0-3-1.1-5.6-3.2-7.7S27.1,8.7,24,8.7c-3,0-5.6,1.1-7.7,3.2s-3.2,4.7-3.2,7.7C13.1,19.6,13.1,37.7,13.1,37.7z"/>
</svg>
