<?xml version="1.0" encoding="utf-8"?>
<!-- Generator: Adobe Illustrator 26.3.1, SVG Export Plug-In . SVG Version: 6.00 Build 0)  -->
<svg version="1.1" id="Layer_1" xmlns="http://www.w3.org/2000/svg" xmlns:xlink="http://www.w3.org/1999/xlink" x="0px" y="0px"
	 viewBox="0 0 48 48" style="enable-background:new 0 0 48 48;" xml:space="preserve">
<style type="text/css">
	.st0{fill:#4C7EA0;}
</style>
<path class="st0" d="M24,46.1l-6-6H8.7c-0.9,0-1.6-0.3-2.3-1c-0.6-0.6-0.9-1.4-0.9-2.3V6.3c0-0.9,0.3-1.6,0.9-2.3
	C7,3.4,7.8,3.1,8.7,3.1h30.7c0.9,0,1.6,0.3,2.3,0.9s0.9,1.4,0.9,2.3v30.6c0,0.9-0.3,1.6-0.9,2.3c-0.6,0.6-1.4,1-2.3,1H30L24,46.1z
	 M7.3,36.8c2.2-2.1,4.7-3.8,7.5-5c2.8-1.3,5.9-1.9,9.2-1.9s6.4,0.6,9.2,1.9s5.3,2.9,7.5,5V6.3c0-0.3-0.1-0.7-0.4-1
	c-0.3-0.3-0.6-0.4-1-0.4H8.7C8.3,4.9,8,5,7.7,5.3s-0.4,0.6-0.4,1C7.3,6.3,7.3,36.8,7.3,36.8z M24.1,24.5c1.9,0,3.6-0.7,4.9-2
	s2-3,2-4.9s-0.7-3.5-2-4.9s-3-2-4.9-2s-3.6,0.7-4.9,2s-2,2.9-2,4.9s0.7,3.6,2,4.9C20.5,23.9,22.1,24.5,24.1,24.5z M24.1,22.8
	c-1.4,0-2.6-0.5-3.6-1.5S19,19.1,19,17.7s0.5-2.6,1.5-3.6s2.2-1.5,3.6-1.5s2.6,0.5,3.6,1.5s1.5,2.2,1.5,3.6s-0.5,2.6-1.5,3.6
	C26.6,22.3,25.4,22.8,24.1,22.8z M24,43.4l5.1-5.1h10.3v-0.4c-2.3-2.1-4.7-3.7-7.3-4.7s-5.3-1.5-8.1-1.5s-5.5,0.5-8,1.5
	c-2.6,1-5,2.6-7.3,4.7v0.5h10.2L24,43.4z"/>
</svg>
