<?xml version="1.0" encoding="utf-8"?>
<!-- Generator: Adobe Illustrator 26.3.1, SVG Export Plug-In . SVG Version: 6.00 Build 0)  -->
<svg version="1.1" id="Layer_1" xmlns="http://www.w3.org/2000/svg" xmlns:xlink="http://www.w3.org/1999/xlink" x="0px" y="0px"
	 viewBox="0 0 48 48" style="enable-background:new 0 0 48 48;" xml:space="preserve">
<style type="text/css">
	.st0{fill:#00ADB3;}
</style>
<path class="st0" d="M24,46.5C11.6,46.5,1.5,36.4,1.5,24C1.5,11.6,11.6,1.5,24,1.5c12.4,0,22.5,10.1,22.5,22.5
	c0,0.9-0.7,1.5-1.5,1.5s-1.5-0.7-1.5-1.5c0-10.7-8.7-19.5-19.5-19.5S4.5,13.3,4.5,24S13.3,43.5,24,43.5c0.9,0,1.5,0.7,1.5,1.5
	S24.9,46.5,24,46.5z"/>
<path class="st0" d="M42,39.8l-9.5-9.5c3.6-4.6,3.2-11.3-1-15.6c-4.6-4.6-12.1-4.6-16.8,0c-4.6,4.6-4.6,12.1,0,16.8
	c2.3,2.3,5.3,3.5,8.4,3.5c2.5,0,5.1-0.8,7.2-2.5l9.5,9.5c0.3,0.3,0.7,0.5,1.1,0.5s0.8-0.2,1.1-0.5C42.6,41.4,42.6,40.4,42,39.8z
	 M16.9,29.3c-3.4-3.4-3.4-9,0-12.4c1.7-1.7,3.9-2.6,6.2-2.6c2.2,0,4.5,0.9,6.2,2.6c3.4,3.4,3.4,9,0,12.4
	C25.9,32.7,20.3,32.7,16.9,29.3z"/>
</svg>
