<?xml version="1.0" encoding="utf-8"?>
<!-- Generator: Adobe Illustrator 26.3.1, SVG Export Plug-In . SVG Version: 6.00 Build 0)  -->
<svg version="1.1" id="Layer_1" xmlns="http://www.w3.org/2000/svg" xmlns:xlink="http://www.w3.org/1999/xlink" x="0px" y="0px"
	 viewBox="0 0 48 48" style="enable-background:new 0 0 48 48;" xml:space="preserve">
<style type="text/css">
	.st0{fill:#00ADB3;}
</style>
<path class="st0" d="M6.2,21l6.6,2.8c0.8-1.6,1.6-3.1,2.5-4.6c0.9-1.5,1.9-2.9,3-4.3l-4.6-0.9c-0.1,0-0.2,0-0.3,0.1
	c-0.1,0-0.2,0.1-0.3,0.2L6.2,21z M15.1,25.4l7.8,7.8c2.2-1.1,4.4-2.3,6.4-3.6c2-1.3,3.7-2.7,5.1-4.1c3-3.1,5.3-6.2,6.8-9.4
	c1.5-3.2,2.3-7,2.5-11.4c-4.4,0.2-8.2,1-11.4,2.5c-3.2,1.5-6.3,3.7-9.4,6.8C21.4,15.3,20,17,18.7,19C17.3,21,16.1,23.1,15.1,25.4z
	 M29.1,19.1c-0.7-0.7-1.1-1.6-1.1-2.6s0.4-2,1.1-2.7c0.7-0.7,1.6-1.1,2.7-1.1s2,0.4,2.7,1.1c0.7,0.7,1.1,1.6,1.1,2.7s-0.4,2-1.1,2.6
	c-0.7,0.7-1.6,1.1-2.7,1.1C30.7,20.2,29.8,19.9,29.1,19.1z M27.2,41.9l6.9-6.8c0.1-0.1,0.1-0.2,0.2-0.4c0-0.1,0-0.2,0-0.4l-0.9-4.6
	c-1.4,1.1-2.8,2-4.3,2.9c-1.5,0.9-3,1.7-4.6,2.6L27.2,41.9z M46.4,1.9c0.2,5.2-0.5,9.8-2.2,13.9s-4.3,8-7.9,11.5
	c-0.1,0.1-0.2,0.2-0.3,0.3l-0.3,0.3l1.2,6c0.1,0.6,0.1,1.2-0.1,1.7c-0.2,0.5-0.5,1-0.9,1.4l-9.7,9.7L21.7,36l-9.5-9.5L1.4,21.9
	l9.7-9.7c0.4-0.4,0.9-0.7,1.5-0.9c0.5-0.2,1.1-0.2,1.7-0.1l6.1,1.2l0.2-0.2c0.1-0.1,0.2-0.2,0.3-0.2c3.6-3.6,7.5-6.2,11.6-7.9
	S41.3,1.6,46.4,1.9z M5.5,33.7c1.2-1.2,2.6-1.8,4.3-1.8c1.7,0,3.2,0.6,4.4,1.8c1.2,1.2,1.8,2.6,1.7,4.3c0,1.7-0.6,3.1-1.8,4.3
	c-1,1-2.4,1.8-4.4,2.4S5,45.9,1.5,46.3c0.4-3.4,1-6.2,1.6-8.2C3.7,36.1,4.5,34.6,5.5,33.7z M7.4,35.7c-0.6,0.6-1.1,1.5-1.5,2.7
	c-0.4,1.2-0.8,2.7-1.1,4.5c1.8-0.2,3.3-0.6,4.5-1s2.1-1,2.7-1.5c0.7-0.6,1.1-1.4,1.1-2.4s-0.3-1.7-1-2.4c-0.7-0.6-1.5-1-2.4-0.9
	C8.8,34.6,8.1,35,7.4,35.7z"/>
</svg>
