<?xml version="1.0" encoding="utf-8"?>
<!-- Generator: Adobe Illustrator 26.3.1, SVG Export Plug-In . SVG Version: 6.00 Build 0)  -->
<svg version="1.1" id="Layer_1" xmlns="http://www.w3.org/2000/svg" xmlns:xlink="http://www.w3.org/1999/xlink" x="0px" y="0px"
	 viewBox="0 0 48 48" style="enable-background:new 0 0 48 48;" xml:space="preserve">
<style type="text/css">
	.st0{fill:#00ADB3;}
</style>
<path class="st0" d="M16.1,40.8h15.7v-6.2c0-2.3-0.8-4.4-2.2-6.1c-1.5-1.7-3.4-2.6-5.6-2.6c-2.2,0-4.1,0.9-5.6,2.6s-2.2,3.7-2.2,6.1
	V40.8z M24,22.1c2.2,0,4.1-0.9,5.6-2.6s2.2-3.7,2.2-6.1V7.2H16.2v6.2c0,2.3,0.8,4.4,2.2,6.1S21.8,22.2,24,22.1z M9.2,43v-2.2h4.7
	v-6.2c0-2.4,0.7-4.6,2-6.5s3.1-3.3,5.4-4c-2.3-0.7-4.1-2-5.4-4s-2-4.1-2-6.5V7.2H9.2V5h29.6v2.2h-4.7v6.2c0,2.4-0.7,4.5-2,6.5
	s-3.1,3.3-5.4,4c2.3,0.7,4.1,2,5.4,4s2,4.1,2,6.5v6.2h4.7V43H9.2z"/>
</svg>
