<?xml version="1.0" encoding="utf-8"?>
<!-- Generator: Adobe Illustrator 26.3.1, SVG Export Plug-In . SVG Version: 6.00 Build 0)  -->
<svg version="1.1" id="Layer_1" xmlns="http://www.w3.org/2000/svg" xmlns:xlink="http://www.w3.org/1999/xlink" x="0px" y="0px"
	 viewBox="0 0 48 48" style="enable-background:new 0 0 48 48;" xml:space="preserve">
<style type="text/css">
	.st0{fill:#00ADB3;}
</style>
<path class="st0" d="M24,45.1c-1.2,0-2.2-0.4-3-1.2c-0.8-0.8-1.2-1.8-1.2-3h8.5c0,1.2-0.4,2.2-1.2,3C26.2,44.7,25.2,45.1,24,45.1z
	 M15.5,37.5v-3.2h17.1v3.2H15.5z M15.7,31.2c-2.3-1.5-4.1-3.4-5.5-5.7s-2-4.8-2-7.7c0-4.3,1.6-8,4.7-11.1S19.7,2.1,24,2.1
	c4.3,0,8,1.6,11.1,4.7s4.7,6.8,4.7,11.1c0,2.8-0.7,5.4-2,7.7c-1.3,2.3-3.2,4.1-5.5,5.7H15.7z M16.9,28h14.3c1.7-1.1,3-2.6,4-4.4
	c1-1.8,1.5-3.7,1.5-5.8c0-3.5-1.2-6.4-3.7-8.9c-2.5-2.5-5.4-3.7-8.9-3.7s-6.4,1.2-8.9,3.7s-3.7,5.4-3.7,8.9c0,2.1,0.5,4,1.5,5.8
	C13.8,25.4,15.2,26.9,16.9,28z"/>
</svg>
