<?xml version="1.0" encoding="utf-8"?>
<!-- Generator: Adobe Illustrator 26.3.1, SVG Export Plug-In . SVG Version: 6.00 Build 0)  -->
<svg version="1.1" id="Layer_1" xmlns="http://www.w3.org/2000/svg" xmlns:xlink="http://www.w3.org/1999/xlink" x="0px" y="0px"
	 viewBox="0 0 48 48" style="enable-background:new 0 0 48 48;" xml:space="preserve">
<style type="text/css">
	.st0{fill:#00ADB3;}
</style>
<path class="st0" d="M22.8,35h2.6v-9.5H35v-2.7h-9.6V13h-2.6v9.8H13v2.7h9.8V35z M24,46c-3,0-5.9-0.6-8.6-1.7s-5-2.7-7-4.7
	s-3.6-4.3-4.7-7S2,27,2,24s0.6-5.9,1.7-8.6s2.7-5,4.7-7s4.3-3.5,7-4.7S21,2,24,2s5.9,0.6,8.6,1.7c2.7,1.2,5,2.7,7,4.7
	c2,2,3.5,4.3,4.7,7S46,21,46,24s-0.6,5.9-1.7,8.6s-2.7,5-4.7,7c-2,2-4.3,3.6-7,4.7C29.9,45.4,27,46,24,46z M24.1,43.4
	c5.4,0,9.9-1.9,13.7-5.7s5.6-8.4,5.6-13.8c0-5.4-1.9-9.9-5.6-13.7S29.4,4.6,24,4.6c-5.4,0-9.9,1.9-13.7,5.6S4.6,18.6,4.6,24
	c0,5.4,1.9,9.9,5.7,13.7S18.7,43.4,24.1,43.4z"/>
</svg>
