<?xml version="1.0" encoding="utf-8"?>
<!-- Generator: Adobe Illustrator 26.3.1, SVG Export Plug-In . SVG Version: 6.00 Build 0)  -->
<svg version="1.1" id="Layer_1" xmlns="http://www.w3.org/2000/svg" xmlns:xlink="http://www.w3.org/1999/xlink" x="0px" y="0px"
	 viewBox="0 0 24 24" style="enable-background:new 0 0 24 24;" xml:space="preserve">
<style type="text/css">
	.st0{fill:none;stroke:#BDBDBD;stroke-width:2;stroke-linecap:round;stroke-linejoin:round;}
</style>
<path class="st0" d="M14.2,2.3v4.1c0,0.6,0,0.8,0.1,1.1c0.1,0.2,0.2,0.3,0.4,0.4C14.9,8,15.2,8,15.8,8h4.1 M17,22H9
	c-1.7,0-2.5,0-3.2-0.3c-0.6-0.3-1-0.7-1.3-1.3c-0.3-0.6-0.3-1.5-0.3-3.2V6.8c0-1.7,0-2.5,0.3-3.2c0.3-0.6,0.7-1,1.3-1.3
	C6.4,2,7.3,2,9,2h3.2c0.7,0,1.1,0,1.4,0.1c0.3,0.1,0.6,0.2,0.9,0.4c0.3,0.2,0.6,0.4,1.1,1l3.2,3.2c0.5,0.5,1,1.1,1.1,1.4"/>
<line class="st0" x1="8.5" y1="15.2" x2="19.8" y2="15.2"/>
<polyline class="st0" points="16.3,11.7 19.8,15.2 16.3,18.7 "/>
</svg>
