<?xml version="1.0" encoding="utf-8"?>
<!-- Generator: Adobe Illustrator 26.3.1, SVG Export Plug-In . SVG Version: 6.00 Build 0)  -->
<svg version="1.1" id="Layer_2" xmlns="http://www.w3.org/2000/svg" xmlns:xlink="http://www.w3.org/1999/xlink" x="0px" y="0px"
	 width="24px" height="24px" viewBox="0 0 24 24" style="enable-background:new 0 0 24 24;" xml:space="preserve">
<style type="text/css">
	.st0{fill:none;stroke:#667085;stroke-width:2;stroke-linecap:round;stroke-linejoin:round;}
</style>
<path class="st0" d="M7.6,5.7V1.5 M16.4,5.7V1.5 M22,9.9H2V8.6C2,6.9,2,6,2.4,5.3c0.3-0.6,0.8-1.1,1.5-1.4c0.7-0.3,1.6-0.3,3.5-0.3
	h9.3c1.9,0,2.8,0,3.5,0.3c0.6,0.3,1.1,0.8,1.5,1.4C22,6,22,6.9,22,8.6v8.8c0,1.8,0,2.6-0.4,3.3c-0.3,0.6-0.8,1.1-1.5,1.4
	c-0.7,0.3-1.6,0.3-3.5,0.3H7.3c-1.9,0-2.8,0-3.5-0.3C3.2,21.9,3,21.6,3,21.6"/>
<line class="st0" x1="1.5" y1="15.9" x2="11.1" y2="15.9"/>
<polyline class="st0" points="8.1,13 11.1,15.9 8.1,18.9 "/>
</svg>
