<?xml version="1.0" encoding="utf-8"?>
<!-- Generator: Adobe Illustrator 26.3.1, SVG Export Plug-In . SVG Version: 6.00 Build 0)  -->
<svg version="1.1" id="Layer_1" xmlns="http://www.w3.org/2000/svg" xmlns:xlink="http://www.w3.org/1999/xlink" x="0px" y="0px"
	 width="24px" height="24px" viewBox="0 0 24 24" style="enable-background:new 0 0 24 24;" xml:space="preserve">
<style type="text/css">
	.st0{fill:none;stroke:#667085;stroke-width:2;stroke-linecap:round;stroke-linejoin:round;}
</style>
<path class="st0" d="M16.5,10.8L22,7 M2,7l5.5,3.8 M6.8,20h10.4c1.7,0,2.5,0,3.2-0.3c0.6-0.3,1-0.7,1.3-1.3c0.3-0.6,0.3-1.5,0.3-3.2
	V8.8c0-1.7,0-2.5-0.3-3.2c-0.3-0.6-0.7-1-1.3-1.3C19.7,4,18.9,4,17.2,4H6.8C5.1,4,4.3,4,3.6,4.3C3,4.6,2.6,5,2.3,5.6
	C2,6.3,2,7.1,2,8.8v6.4c0,1.7,0,2.5,0.3,3.2c0.3,0.6,0.7,1,1.3,1.3C4.3,20,5.1,20,6.8,20z"/>
<line class="st0" x1="12" y1="13.5" x2="12" y2="6.9"/>
<line class="st0" x1="12" y1="17.1" x2="12" y2="16.9"/>
</svg>
