<svg xmlns="http://www.w3.org/2000/svg" x="0px" y="0px" viewBox="0 0 22 22" style="enable-background:new 0 0 22 22;">
<path d="M11,0C4.9,0,0,4.9,0,11s4.9,11,11,11s11-4.9,11-11S17.1,0,11,0z M20.1,10.5c-2.4-0.4-4.5-0.4-6.5-0.1
	c-0.2-0.5-0.5-1-0.7-1.5C15,8,16.7,6.7,17.9,5.1C19.2,6.6,19.9,8.5,20.1,10.5z M16.5,3.8c-1.1,1.4-2.6,2.6-4.6,3.4
	c-0.9-1.7-2-3.4-3.2-5C9.5,2,10.2,1.9,11,1.9C13.1,1.9,15,2.6,16.5,3.8z M6.9,2.9c1.2,1.6,2.3,3.2,3.2,4.9c-2.2,0.7-4.9,1-8,1
	C2.8,6.2,4.6,4.1,6.9,2.9z M1.9,11l0-0.2c3.5,0,6.6-0.4,9.1-1.2c0.2,0.4,0.4,0.9,0.6,1.3c-3.1,1-5.7,3-7.6,5.9
	C2.7,15.2,1.9,13.2,1.9,11z M5.4,18.2c1.8-2.8,4.1-4.7,7-5.5c0.9,2.2,1.5,4.5,1.9,6.8C11.2,20.7,7.9,20.1,5.4,18.2z M16,18.6
	c-0.4-2.2-1-4.3-1.8-6.3c1.7-0.2,3.6-0.2,5.7,0.2C19.6,15,18.1,17.2,16,18.6z"/>
</svg>
