<svg xmlns="http://www.w3.org/2000/svg" x="0px" y="0px" viewBox="0 0 64 64">
	<path style="fill:#33C8B4;" d="M16.3,28.1v12.8c0,0.4-0.4,0.7-0.8,0.5L4.4,35c-0.6-0.3-1.3,0.1-1.3,0.7v11.5c0,1.4,0.7,2.7,2,3.4 l23.1,13.3c0.6,0.3,1.3-0.1,1.3-0.7V36.5c0-1.4-0.7-2.7-2-3.4l-10-5.8C17,27,16.3,27.4,16.3,28.1z"/>
	<path style="fill:#33C8B4;" d="M34.3,36.5v26.7c0,0.6,0.7,1.1,1.3,0.7l10-5.8c1.2-0.7,2-2,2-3.4V42.7c0-0.5,0.3-1,0.7-1.3l10.5-6 c1.2-0.7,2-2,2-3.4V20.5c0-0.7-0.7-1-1.3-0.7L36.3,33.1C35.1,33.8,34.3,35.1,34.3,36.5z"/>
	<path style="fill:#FF8F00;" d="M57.1,14.2L33.1,0.3c-0.7-0.4-1.6-0.4-2.3,0l-24,13.9c-0.5,0.3-0.5,1,0,1.3L18,22 c0.5,0.3,1.1,0.3,1.5,0l11.8-6.8c0.4-0.2,0.8-0.2,1.2,0L44.3,22c0.5,0.3,1.1,0.3,1.5,0l11.3-6.5C57.6,15.2,57.6,14.5,57.1,14.2z"/>
</svg>
