<svg xmlns="http://www.w3.org/2000/svg" x="0px" y="0px" viewBox="0 0 22 20" style="enable-background:new 0 0 22 20;">
<path style="fill:none;stroke-width:2;stroke-linecap:round;stroke-linejoin:round;" d="M11.7,12.5l6.5,6
	c0.6,0.6,1.6,0.6,2.2,0l0,0c0.6-0.6,0.6-1.6,0-2.2l-6-6.5L11.7,12.5z"/>
<path style="fill:none;stroke-width:2;stroke-linecap:round;stroke-linejoin:round;" d="M7.7,9.4
	c-1-1-0.7-3.2-0.7-4.6c1.5,0.7,3.4,0.4,4.4,1.4c1,1,1,2.2,0,3.2C10.3,10.4,8.6,10.4,7.7,9.4z"/>
<path style="fill:none;stroke-width:2;stroke-linecap:round;stroke-linejoin:round;" d="M21,9.8V3c0-1.1-0.9-2-2-2H3
	C1.9,1,1,1.9,1,3v10c0,1.1,0.9,2,2,2h4.5"/>
</svg>
