<svg xmlns="http://www.w3.org/2000/svg" x="0px" y="0px" viewBox="0 0 252 238">
<linearGradient id="SVGID_1_" gradientUnits="userSpaceOnUse" x1="76.8492" y1="247.1558" x2="195.1255" y2="42.2952">
	<stop  offset="0" style="stop-color:#33C8B4"/>
	<stop  offset="1" style="stop-color:#FF8F00"/>
</linearGradient>
<path style="fill:url(#SVGID_1_);" d="M182.8,231.8L162,211.6c-20.7,15.8-45.4,23.7-74.2,23.7c-17.3,0-32.3-2.8-45.1-8.5
	S20,213.2,13,202.8c-6.9-10.3-10.4-22.5-10.4-36.3c0-14.1,3.8-26.8,11.4-38.2c7.6-11.4,18.9-20.7,34.1-28
	c-5.5-6.8-9.5-13.4-11.8-19.7c-2.4-6.3-3.5-13.2-3.5-20.6c0-10.7,2.8-20.4,8.3-29.1c5.5-8.7,13.6-15.6,24.2-20.6
	c10.6-5,23.1-7.5,37.6-7.5c14.7,0,27.2,2.7,37.4,8c10.2,5.3,17.9,12.5,23,21.4c5.1,9,7.5,18.8,7,29.4h-51.5
	c0.2-5.8-1.2-10.2-4.3-13.3c-3.1-3.1-7.2-4.6-12.3-4.6s-9.4,1.5-12.8,4.5c-3.4,3-5.1,6.8-5.1,11.5c0,4.5,1.4,9.2,4.3,14.1
	c2.9,4.9,7.4,10.6,13.6,17l54.7,53.4c0.4-1.1,1-2.3,1.8-3.8c0.7-1.5,1.5-3.2,2.4-5.1l11.8-20.2h54.7l-15.4,27.8
	c-5.8,12.6-12.4,24.5-19.8,35.8l54.1,53.1H182.8z M128.4,179l-49.9-48.3c-15.4,7.9-23,18.6-23,32c0,8.1,3.1,14.9,9.4,20.3
	c6.3,5.4,14.8,8.2,25.4,8.2C104.6,191.2,117.3,187.1,128.4,179z"/>
</svg>
