<svg xmlns="http://www.w3.org/2000/svg" x="0px" y="0px" viewBox="0 0 1660 330">
<linearGradient id="SVGID_1_" gradientUnits="userSpaceOnUse" x1="553.0463" y1="559.7208" x2="1045.8324" y2="-293.8098">
	<stop  offset="0" style="stop-color:#33C8B4"/>
	<stop  offset="1" style="stop-color:#FF8F00"/>
</linearGradient>
<path style="fill:none;stroke:url(#SVGID_1_);stroke-width:4;stroke-linecap:round;stroke-linejoin:round;stroke-miterlimit:10;" d="
	M151,30.3c17.7,9.4,31.4,22.6,41.1,39.5c9.7,17,14.6,36.5,14.6,58.7c0,22-4.9,41.5-14.6,58.6c-9.7,17.1-23.5,30.3-41.3,39.7
	c-17.8,9.4-38.5,14.1-61.9,14.1H4.7V16.2h84.2C112.6,16.2,133.3,20.9,151,30.3z M133.7,176.5c11.5-11.3,17.3-27.3,17.3-48
	c0-20.7-5.8-36.8-17.3-48.3s-27.6-17.3-48.3-17.3H59.4v130.6h25.9C106.1,193.5,122.2,187.8,133.7,176.5z M404.7,164.7H280.9
	c0.9,11.1,4.4,19.6,10.7,25.4c6.3,5.9,14,8.8,23.2,8.8c13.7,0,23.1-5.8,28.5-17.3h58.2c-3,11.7-8.4,22.3-16.2,31.7
	c-7.8,9.4-17.5,16.8-29.3,22.1c-11.7,5.3-24.9,8-39.4,8c-17.5,0-33.1-3.7-46.7-11.2c-13.7-7.5-24.3-18.1-32-32
	c-7.7-13.9-11.5-30.1-11.5-48.6c0-18.6,3.8-34.8,11.4-48.6c7.6-13.9,18.2-24.5,31.8-32c13.6-7.5,29.3-11.2,47-11.2
	c17.3,0,32.6,3.6,46.1,10.9c13.4,7.3,23.9,17.6,31.5,31c7.6,13.4,11.4,29.1,11.4,47C405.7,153.8,405.4,159.1,404.7,164.7z
	 M349.7,134.3c0-9.4-3.2-16.9-9.6-22.4c-6.4-5.5-14.4-8.3-24-8.3c-9.2,0-16.9,2.7-23.2,8c-6.3,5.3-10.2,12.9-11.7,22.7H349.7z
	 M514.8,189.6l38.7-127.4h58.2l-63.4,178.6h-67.5L417.5,62.3h58.6L514.8,189.6z M802.2,164.7H678.3c0.8,11.1,4.4,19.6,10.7,25.4
	c6.3,5.9,14,8.8,23.2,8.8c13.6,0,23.1-5.8,28.5-17.3H799c-3,11.7-8.4,22.3-16.2,31.7c-7.8,9.4-17.5,16.8-29.3,22.1
	c-11.7,5.3-24.9,8-39.4,8c-17.5,0-33.1-3.7-46.7-11.2c-13.7-7.5-24.3-18.1-32-32c-7.7-13.9-11.5-30.1-11.5-48.6
	c0-18.6,3.8-34.8,11.4-48.6c7.6-13.9,18.2-24.5,31.8-32c13.6-7.5,29.3-11.2,47-11.2c17.3,0,32.6,3.6,46.1,10.9
	c13.4,7.3,23.9,17.6,31.5,31c7.6,13.4,11.4,29.1,11.4,47C803.1,153.8,802.8,159.1,802.2,164.7z M747.1,134.3
	c0-9.4-3.2-16.9-9.6-22.4c-6.4-5.5-14.4-8.3-24-8.3c-9.2,0-16.9,2.7-23.2,8c-6.3,5.3-10.2,12.9-11.7,22.7H747.1z M886.6,4v236.8
	h-54.7V4H886.6z M960.4,232.2c-14-7.5-25-18.1-33-32c-8-13.9-12-30.1-12-48.6c0-18.3,4-34.5,12.2-48.5c8.1-14,19.2-24.7,33.3-32.2
	c14.1-7.5,29.9-11.2,47.4-11.2c17.5,0,33.3,3.7,47.4,11.2c14.1,7.5,25.2,18.2,33.3,32.2c8.1,14,12.2,30.1,12.2,48.5
	c0,18.3-4.1,34.5-12.3,48.5c-8.2,14-19.4,24.7-33.6,32.2c-14.2,7.5-30,11.2-47.5,11.2C990.1,243.4,974.4,239.7,960.4,232.2z
	 M1034.3,184.5c7.4-7.7,11-18.7,11-33c0-14.3-3.6-25.3-10.7-33c-7.2-7.7-16-11.5-26.4-11.5c-10.7,0-19.5,3.8-26.6,11.4
	c-7,7.6-10.6,18.6-10.6,33.1c0,14.3,3.5,25.3,10.4,33c6.9,7.7,15.6,11.5,26.1,11.5C1018.1,196,1027,192.2,1034.3,184.5z M1207,67.4
	c9.4-5.1,20.4-7.7,33-7.7c14.7,0,28.1,3.7,40,11.2c11.9,7.5,21.4,18.1,28.3,32c6.9,13.9,10.4,30,10.4,48.3
	c0,18.4-3.5,34.5-10.4,48.5c-6.9,14-16.4,24.8-28.3,32.3c-11.9,7.6-25.3,11.4-40,11.4c-12.4,0-23.3-2.6-32.8-7.7
	c-9.5-5.1-16.9-11.7-22.2-19.8V326h-54.7V62.3h54.7v25.3C1190.2,79.2,1197.6,72.5,1207,67.4z M1251.6,119.1
	c-7.6-7.8-16.9-11.7-28-11.7c-10.9,0-20.1,3.9-27.7,11.8c-7.6,7.9-11.4,18.7-11.4,32.3c0,13.7,3.8,24.4,11.4,32.3
	c7.6,7.9,16.8,11.8,27.7,11.8s20.2-4,27.8-12s11.5-18.8,11.5-32.5C1263,137.6,1259.2,126.9,1251.6,119.1z M1514.8,164.7H1391
	c0.8,11.1,4.4,19.6,10.7,25.4c6.3,5.9,14,8.8,23.2,8.8c13.6,0,23.1-5.8,28.5-17.3h58.2c-3,11.7-8.4,22.3-16.2,31.7
	c-7.8,9.4-17.5,16.8-29.3,22.1c-11.7,5.3-24.9,8-39.4,8c-17.5,0-33.1-3.7-46.7-11.2c-13.7-7.5-24.3-18.1-32-32
	c-7.7-13.9-11.5-30.1-11.5-48.6c0-18.6,3.8-34.8,11.4-48.6c7.6-13.9,18.2-24.5,31.8-32c13.6-7.5,29.3-11.2,47-11.2
	c17.3,0,32.6,3.6,46.1,10.9c13.4,7.3,23.9,17.6,31.5,31c7.6,13.4,11.4,29.1,11.4,47C1515.8,153.8,1515.4,159.1,1514.8,164.7z
	 M1459.8,134.3c0-9.4-3.2-16.9-9.6-22.4c-6.4-5.5-14.4-8.3-24-8.3c-9.2,0-16.9,2.7-23.2,8c-6.3,5.3-10.2,12.9-11.7,22.7H1459.8z
	 M1623.3,68.8c9.6-5.6,20.3-8.5,32-8.5v57.9h-15c-13.7,0-23.9,2.9-30.7,8.8c-6.8,5.9-10.2,16.2-10.2,30.9v82.9h-54.7V62.3h54.7V92
	C1605.7,82.2,1613.7,74.5,1623.3,68.8z"/>
</svg>
