<svg xmlns="http://www.w3.org/2000/svg" x="0px" y="0px" viewBox="0 0 1450 350">
<linearGradient id="SVGID_1_" gradientUnits="userSpaceOnUse" x1="473.9255" y1="533.2159" x2="914.9525" y2="-230.6653">
	<stop  offset="0" style="stop-color:#33C8B4"/>
	<stop  offset="1" style="stop-color:#FF8F00"/>
</linearGradient>
<path style="fill:none;stroke:url(#SVGID_1_);stroke-width:4;stroke-linecap:round;stroke-linejoin:round;stroke-miterlimit:10;" d="
	M149.5,48.6c17.7,9.4,31.4,22.6,41.1,39.5c9.7,17,14.6,36.5,14.6,58.7c0,22-4.9,41.5-14.6,58.6c-9.7,17.1-23.5,30.3-41.3,39.7
	c-17.8,9.4-38.5,14.1-61.9,14.1H3.2V34.5h84.2C111.1,34.5,131.8,39.2,149.5,48.6z M132.2,194.8c11.5-11.3,17.3-27.3,17.3-48
	c0-20.7-5.8-36.8-17.3-48.3s-27.6-17.3-48.3-17.3H58v130.6h25.9C104.6,211.8,120.7,206.1,132.2,194.8z M403.2,183H279.4
	c0.9,11.1,4.4,19.6,10.7,25.4c6.3,5.9,14,8.8,23.2,8.8c13.7,0,23.1-5.8,28.5-17.3H400c-3,11.7-8.4,22.3-16.2,31.7
	c-7.8,9.4-17.5,16.8-29.3,22.1c-11.7,5.3-24.9,8-39.4,8c-17.5,0-33.1-3.7-46.7-11.2c-13.7-7.5-24.3-18.1-32-32
	c-7.7-13.9-11.5-30.1-11.5-48.6c0-18.6,3.8-34.8,11.4-48.6c7.6-13.9,18.2-24.5,31.8-32c13.6-7.5,29.3-11.2,47-11.2
	c17.3,0,32.6,3.6,46.1,10.9c13.4,7.3,23.9,17.6,31.5,31c7.6,13.4,11.4,29.1,11.4,47C404.2,172.1,403.9,177.5,403.2,183z
	 M348.2,152.6c0-9.4-3.2-16.9-9.6-22.4c-6.4-5.5-14.4-8.3-24-8.3c-9.2,0-16.9,2.7-23.2,8c-6.3,5.3-10.2,12.9-11.7,22.7H348.2z
	 M464,253.7c-12.2-5.3-21.8-12.6-28.8-21.9c-7-9.3-11-19.7-11.8-31.2h54.1c0.6,6.2,3.5,11.2,8.6,15s11.4,5.8,18.9,5.8
	c6.8,0,12.1-1.3,15.8-4c3.7-2.7,5.6-6.1,5.6-10.4c0-5.1-2.7-8.9-8-11.4c-5.3-2.5-14-5.2-25.9-8.2c-12.8-3-23.5-6.1-32-9.4
	c-8.5-3.3-15.9-8.5-22.1-15.7c-6.2-7.1-9.3-16.8-9.3-29c0-10.2,2.8-19.6,8.5-28c5.6-8.4,14-15.1,25-20c11-4.9,24.1-7.4,39.2-7.4
	c22.4,0,40,5.6,53,16.6c12.9,11.1,20.3,25.8,22.2,44.2h-50.6c-0.9-6.2-3.6-11.1-8.2-14.7c-4.6-3.6-10.6-5.4-18.1-5.4
	c-6.4,0-11.3,1.2-14.7,3.7c-3.4,2.5-5.1,5.8-5.1,10.1c0,5.1,2.7,9,8.2,11.5c5.4,2.6,13.9,5.1,25.4,7.7c13.2,3.4,24,6.8,32.3,10.1
	c8.3,3.3,15.6,8.6,21.9,16c6.3,7.4,9.5,17.2,9.8,29.6c0,10.5-2.9,19.8-8.8,28c-5.9,8.2-14.3,14.7-25.3,19.4c-11,4.7-23.7,7-38.2,7
	C490.1,261.7,476.2,259.1,464,253.7z M615.6,53.6c-6.1-5.6-9.1-12.6-9.1-21c0-8.5,3-15.6,9.1-21.3c6.1-5.7,13.9-8.5,23.5-8.5
	c9.4,0,17.1,2.8,23.2,8.5c6.1,5.7,9.1,12.8,9.1,21.3c0,8.3-3,15.3-9.1,21c-6.1,5.7-13.8,8.5-23.2,8.5
	C629.5,62,621.6,59.2,615.6,53.6z M666.3,80.6v178.6h-54.7V80.6H666.3z M806.9,85.7c9.5,5.1,16.8,11.8,21.9,20.2V80.6h54.7v178.2
	c0,16.4-3.3,31.3-9.8,44.6c-6.5,13.3-16.4,23.9-29.8,31.8c-13.3,7.9-29.9,11.8-49.8,11.8c-26.5,0-47.9-6.2-64.3-18.7
	c-16.4-12.5-25.8-29.4-28.2-50.7h54.1c1.7,6.8,5.8,12.2,12.2,16.2c6.4,3.9,14.3,5.9,23.7,5.9c11.3,0,20.3-3.3,27-9.8
	c6.7-6.5,10.1-16.9,10.1-31.2v-25.3c-5.3,8.3-12.7,15.1-22.1,20.3c-9.4,5.2-20.4,7.8-33,7.8c-14.7,0-28.1-3.8-40-11.4
	c-12-7.6-21.4-18.3-28.3-32.3c-6.9-14-10.4-30.1-10.4-48.5c0-18.3,3.5-34.4,10.4-48.3c6.9-13.9,16.4-24.5,28.3-32
	c11.9-7.5,25.3-11.2,40-11.2C786.4,78,797.4,80.6,806.9,85.7z M817.5,137.6c-7.6-7.9-16.8-11.8-27.7-11.8
	c-10.9,0-20.1,3.9-27.7,11.7c-7.6,7.8-11.4,18.5-11.4,32.2c0,13.7,3.8,24.5,11.4,32.5c7.6,8,16.8,12,27.7,12
	c10.9,0,20.1-3.9,27.7-11.8c7.6-7.9,11.4-18.7,11.4-32.3C828.8,156.2,825.1,145.5,817.5,137.6z M1082.1,99
	c12.5,13.6,18.7,32.2,18.7,55.8v104.3h-54.4v-97c0-11.9-3.1-21.2-9.3-27.8c-6.2-6.6-14.5-9.9-25-9.9c-10.5,0-18.8,3.3-25,9.9
	c-6.2,6.6-9.3,15.9-9.3,27.8v97h-54.7V80.6H978v23.7c5.5-7.9,13-14.1,22.4-18.7c9.4-4.6,19.9-6.9,31.7-6.9
	C1052.9,78.7,1069.6,85.5,1082.1,99z M1306.3,183h-123.8c0.8,11.1,4.4,19.6,10.7,25.4c6.3,5.9,14,8.8,23.2,8.8
	c13.6,0,23.1-5.8,28.5-17.3h58.2c-3,11.7-8.4,22.3-16.2,31.7c-7.8,9.4-17.5,16.8-29.3,22.1c-11.7,5.3-24.9,8-39.4,8
	c-17.5,0-33.1-3.7-46.7-11.2c-13.7-7.5-24.3-18.1-32-32c-7.7-13.9-11.5-30.1-11.5-48.6c0-18.6,3.8-34.8,11.4-48.6
	c7.6-13.9,18.2-24.5,31.8-32c13.6-7.5,29.3-11.2,47-11.2c17.3,0,32.6,3.6,46.1,10.9c13.4,7.3,23.9,17.6,31.5,31
	c7.6,13.4,11.4,29.1,11.4,47C1307.2,172.1,1306.9,177.5,1306.3,183z M1251.2,152.6c0-9.4-3.2-16.9-9.6-22.4
	c-6.4-5.5-14.4-8.3-24-8.3c-9.2,0-16.9,2.7-23.2,8c-6.3,5.3-10.2,12.9-11.7,22.7H1251.2z M1414.8,87.2c9.6-5.6,20.3-8.5,32-8.5v57.9
	h-15c-13.7,0-23.9,2.9-30.7,8.8c-6.8,5.9-10.2,16.2-10.2,30.9v82.9H1336V80.6h54.7v29.8C1397.2,100.6,1405.2,92.8,1414.8,87.2z"/>
</svg>
