<svg xmlns="http://www.w3.org/2000/svg" x="0px" y="0px" viewBox="0 0 22 22" style="enable-background:new 0 0 22 22;" xml:space="preserve">
<path style="stroke:#EA546C;fill:none;stroke-width:2;stroke-linecap:round;stroke-linejoin:round;" d="M18.2,10l2.1-2.9L19,4.9
	l-3.6,0.4l-1.6-1L12.3,1H9.7L8.2,4.3l-1.6,1L3,4.9L1.7,7.1L3.8,10V12l-2.1,2.9L3,17.1l3.6-0.4l1.6,1L9.7,21h2.6l1.5-3.3l1.6-1
	l3.6,0.4l1.3-2.3L18.2,12V10z M11,14.5c-1.9,0-3.5-1.6-3.5-3.5S9.1,7.5,11,7.5s3.5,1.6,3.5,3.5S12.9,14.5,11,14.5z"/>
</svg>
