<svg xmlns="http://www.w3.org/2000/svg" x="0px" y="0px" viewBox="0 0 22 22" style="enable-background:new 0 0 22 22;">
<path id="Card" style="stroke:#EA546C;fill:none;stroke-width:2;stroke-linecap:round;stroke-linejoin:round;" d="M19,21h-2.4l0-7.9
	c0-0.6-0.4-1-1-1H6.4c-0.6,0-1,0.4-1,1l0,7.9H3c-1.1,0-2-0.9-2-2V3c0-1.1,0.9-2,2-2h2.4v5.6h9.2V1c0.5,0,1,0.2,1.4,0.6L20.4,6
	C20.8,6.3,21,6.9,21,7.4V19C21,20.1,20.1,21,19,21z"/>
<line id="Line2" style="stroke:#EA546C;fill:none;stroke-width:2;stroke-linecap:round;stroke-linejoin:round;" x1="5.4" y1="21" x2="16.6" y2="21"/>
<line id="Line1" style="stroke:#EA546C;fill:none;stroke-width:2;stroke-linecap:round;stroke-linejoin:round;" x1="5.4" y1="1" x2="14.6" y2="1"/>
</svg>
